<svg xmlns="http://www.w3.org/2000/svg" viewBox="0 0 340 340"><g id="Layer_19" data-name="Layer 19"><path d="M74.948,50.964a126.056,126.056,0,0,0-33.13,29.151l-13.755,20.8C19.176,117.49,12.25,138.548,10.437,164.96s2.176,48.216,8.721,65.853l9.3,19.375c45.368-1.387,73.076-36.212,89.817-91.8-1.4-35.792-7.481-68.418-19.035-97.35a114.865,114.865,0,0,0-10.048-9.092A12.534,12.534,0,0,0,74.948,50.964Z" style="fill:#d67f7b"/><path d="M118.023,85.346A129.725,129.725,0,0,0,99.232,61.038c4.145,46,4.17,148.712-70.778,189.15l1.493,3.112a126.244,126.244,0,0,0,28.815,33.4,12.529,12.529,0,0,0,14.244.977,126.243,126.243,0,0,0,33.11-29.144l13.76-20.8c8.894-16.577,15.826-37.636,17.638-64.044s-2.169-48.219-8.708-65.851Z" style="fill:#b25858"/><path d="M28.068,100.919l72.334,4.966a56.155,56.155,0,0,0,.154-21.735L41.821,80.118A134.761,134.761,0,0,0,28.068,100.919Z" style="fill:#fff"/><path d="M52.383,233.092l-33.219-2.281a135.13,135.13,0,0,0,9.053,19.511C39.433,246.416,48.829,241.452,52.383,233.092Z" style="fill:#fff"/><path d="M51.267,130.319a3.5,3.5,0,0,0,.584-6.976A68.581,68.581,0,0,0,36.74,124a3.5,3.5,0,1,0,1.162,6.9c.026,0,1.055-.173,2.675-.347-.653,2.942-1.474,6.813-2.3,11.165-2.76.027-4.651.133-4.8.142a3.5,3.5,0,0,0,.405,6.988c.029,0,1.256-.069,3.151-.107-.691,4.182-1.316,8.555-1.762,12.808l-3.394-.233A3.5,3.5,0,0,0,31.4,168.3l3.311.227c-.274,5.078-.283,10.489-.154,15.654-1.762-.336-2.891-.6-2.918-.608a3.5,3.5,0,0,0-1.63,6.808c.151.036,2.041.484,4.815.968.223,4.6.516,8.707.77,11.809-1.555-.388-2.543-.692-2.6-.709a3.5,3.5,0,0,0-2.1,6.678,68.418,68.418,0,0,0,14.878,2.716c.065,0,.127,0,.191,0a3.5,3.5,0,0,0,.184-7c-1.149-.062-2.3-.177-3.416-.323-.254-2.9-.592-7.22-.855-12.218.923.088,1.864.161,2.809.211.064,0,.127,0,.19,0a3.5,3.5,0,0,0,.185-7c-1.17-.063-2.34-.165-3.477-.288-.158-5.333-.171-10.98.109-16.239l3.991.274c.081.006.162.008.243.008a3.5,3.5,0,0,0,.235-6.991l-3.9-.268c.466-4.392,1.131-8.922,1.859-13.221,1.133.047,2.293.114,3.45.211.1.008.2.012.3.012a3.5,3.5,0,0,0,.288-6.988c-.93-.078-1.859-.138-2.773-.186.923-4.788,1.825-8.909,2.459-11.687C48.965,130.181,50.119,130.223,51.267,130.319Z" style="fill:#fff"/><path d="M100.4,105.885l28.4,1.95a134.609,134.609,0,0,0-10.782-22.486l-17.463-1.2C100.724,90.945,100.707,98.246,100.4,105.885Z" style="fill:#d6d9ec"/><path d="M28.22,250.316c.572,1.012,1.148,2.009,1.731,2.981l76.161,5.229a134.8,134.8,0,0,0,13.758-20.8l-67.487-4.633A116.221,116.221,0,0,1,28.22,250.316Z" style="fill:#d6d9ec"/><path d="M128.713,159.044q1.357-4.619,3.129-9.051L175.5,99.329a102.84,102.84,0,0,1,103.561,0l29.936,34.742s24.188,72.859-68.865,94.118S128.713,159.044,128.713,159.044Z" style="fill:#fff"/><path d="M282.23,274.866l41.535-51.482a103.139,103.139,0,0,0-1.052-73.391l-13.719-15.922a102.743,102.743,0,0,1-180.281,24.973A102.754,102.754,0,0,0,282.23,274.866Z" style="fill:#b7c9ea"/><path d="M175.04,214.544q.563.9,1.079,1.818l2.63,5.4q.842,2.033,1.486,4.108s1.7,37.744-38.733,45.83-56.613-26.477-56.613-26.477a48.882,48.882,0,0,1,22.816-46.335q.348-.217.7-.427l5.328-2.772A48.894,48.894,0,0,1,175.04,214.544Z" style="fill:#fff"/><path d="M152.529,285.437l5.447-2.714q.708-.408,1.406-.843a48.9,48.9,0,0,0,20.952-55.668c-6.537,22.412-27.687,38.834-52.787,38.834A55.33,55.33,0,0,1,84.9,245.22,48.537,48.537,0,0,0,89.167,260.9l2.912,5.375A48.9,48.9,0,0,0,152.529,285.437Z" style="fill:#d6d9ec"/><path d="M227.278,148.613c-19.8,11.034-36.266,29.469-36.266,29.469a149.5,149.5,0,0,0,7.072,22.986s15.111,9.329,32.6,5.526,29.654-16.461,29.654-16.461a123.774,123.774,0,0,0,3.2-12.051S247.078,159.647,227.278,148.613Z" style="fill:#797996"/><path d="M198.084,201.068c3.914,10.066,7.684,17.422,7.684,17.422h43.02a207.681,207.681,0,0,0,11.55-28.358A102.228,102.228,0,0,1,212.3,202.056,103.678,103.678,0,0,1,198.084,201.068Z" style="fill:#595975"/><path d="M323.765,223.384a126.149,126.149,0,0,0-16.682-11.327c-19.8,11.033-36.266,29.469-36.266,29.469,2.6,12.513,7.919,25.563,11.41,33.336A103.04,103.04,0,0,0,323.765,223.384Z" style="fill:#595975"/><path d="M279.055,99.334c-6.367,5.818-10.331,10.252-10.331,10.252C272.784,129.124,283.48,150,283.48,150h18.195c5.764-6.63,9.029-13.918,8.853-22.111A103.252,103.252,0,0,0,279.055,99.334Z" style="fill:#797996"/><path d="M131.846,150h39.23s10.7-20.871,14.755-40.409c0,0-3.963-4.434-10.331-10.252A103.093,103.093,0,0,0,131.846,150Z" style="fill:#797996"/><path d="M176.112,216.366l-.211.095a47.86,47.86,0,0,0-13.981,8.555l-2.058-2.3a3,3,0,1,0-4.47,4l2.259,2.525a47.318,47.318,0,0,0-7.934,12.448l-2.8-.833a3,3,0,0,0-1.711,5.751l2.444.727q-.309,1.047-.575,2.113a47.9,47.9,0,0,0-1.381,12.591,7.6,7.6,0,0,0,5.934-2.413,41.44,41.44,0,0,1,1.69-10.6l3.66,1.089a3,3,0,0,0,1.711-5.751l-3.25-.967a41.394,41.394,0,0,1,6.233-9.657l1.123,1.255a3,3,0,0,0,4.471-4l-1.352-1.511a42.825,42.825,0,0,1,5.454-4.037,47.745,47.745,0,0,1,7.37-3.678A49.22,49.22,0,0,0,176.112,216.366Z" style="fill:#ff7d97"/><path d="M105.828,259.587a3,3,0,1,0,4.631-3.815l-1.239-1.5a47.636,47.636,0,0,0,9.454-15.554l3.117.928a3,3,0,1,0,1.711-5.751l-3.09-.92a47.924,47.924,0,0,0,.686-18.36l3.59-.961a3,3,0,1,0-1.551-5.8l-3.361.9a47.639,47.639,0,0,0-5.3-11.889q-.332-.531-.674-1.052l-.064-.114a49.237,49.237,0,0,0-5.326,2.773l.218.384c.034.061.07.12.108.178.219.331.435.666.645,1a41.66,41.66,0,0,1,4.6,10.267l-2.518.674a3,3,0,0,0,.773,5.9,3.031,3.031,0,0,0,.778-.1l2.242-.6a41.9,41.9,0,0,1-.607,15.081l-2.193-.652a3,3,0,0,0-1.711,5.751l2.174.647a41.676,41.676,0,0,1-7.553,12.586l-1.1-1.336a3,3,0,1,0-4.631,3.814l1.45,1.762a41.351,41.351,0,0,1-3.362,2.635,9.625,9.625,0,0,0,5.733,3.176q.735-.579,1.443-1.181Z" style="fill:#ff7d97"/><path d="M143.746,270.337a3.038,3.038,0,0,0,.61-.063l2.157-.446a47.659,47.659,0,0,0,5.68,15.12c.052.088.107.172.166.254l.168.23a49.23,49.23,0,0,0,5.442-2.721,40.536,40.536,0,0,1-5.609-14.092l3.225-.666a3,3,0,0,0-1.215-5.876l-2.717.561c-.045-1-.046-2.01-.018-3.011a55.529,55.529,0,0,1-5.94,2.412q.021.909.076,1.816l-2.629.543a3,3,0,0,0,.6,5.939Z" style="fill:#d34b72"/><path d="M97.717,256.455c-.554.382-1.118.752-1.709,1.089a45.5,45.5,0,0,1-6.841,3.354,49.526,49.526,0,0,0,2.879,5.323l.034.051c.056-.02.113-.038.168-.061a45.853,45.853,0,0,0,11.187-6.6A55.233,55.233,0,0,1,97.717,256.455Z" style="fill:#d34b72"/><path d="M310.523,127.888A85.954,85.954,0,0,1,301.675,150h21.034A102.516,102.516,0,0,0,310.523,127.888Z" style="fill:#595975"/><path d="M325.939,148.649a106.921,106.921,0,0,0-45.046-52.292c-.024-.015-.043-.035-.068-.049a106.337,106.337,0,0,0-107.094,0c-.023.013-.041.031-.063.045a107.043,107.043,0,0,0-35.139,33.376,146.866,146.866,0,0,0-6.442-23.113c-.007-.019-.019-.035-.026-.054A138.64,138.64,0,0,0,121.048,83.6c-.01-.016-.014-.034-.024-.05A128.946,128.946,0,0,0,91.373,49.208a16.112,16.112,0,0,0-18.216-1.251A129.008,129.008,0,0,0,39.09,77.921c-.012.014-.019.031-.03.046A138.677,138.677,0,0,0,25.017,99.206c-.012.02-.027.036-.038.057C14.675,118.479,8.607,140.5,6.945,164.72s1.343,46.86,8.932,67.311c.011.029.027.055.039.083a138.63,138.63,0,0,0,11,22.931c.01.018.016.038.026.056a129.239,129.239,0,0,0,29.63,34.328,16.1,16.1,0,0,0,18.224,1.25,124.816,124.816,0,0,0,20.037-15.022,52.326,52.326,0,0,0,75.456,2.044,106.254,106.254,0,0,0,113.813.121c.017-.011.03-.027.048-.038A106.965,106.965,0,0,0,327.047,224.6l.006-.012a106.646,106.646,0,0,0-1.09-75.892C325.956,148.679,325.945,148.665,325.939,148.649ZM279.5,103.691a100.015,100.015,0,0,1,37.889,42.8H285.657c-2.564-5.316-9.722-20.9-13.126-35.87C273.878,109.2,276.3,106.7,279.5,103.691Zm-104.451,0c3.2,3.011,5.625,5.508,6.971,6.934-3.4,14.969-10.561,30.554-13.125,35.87H137.164A100.025,100.025,0,0,1,175.052,103.691ZM76.739,53.972a9.078,9.078,0,0,1,10.264.7,120.313,120.313,0,0,1,24.353,26.707L48.965,77.1A120.287,120.287,0,0,1,76.739,53.972ZM43.419,83.736l72.523,4.978a131.415,131.415,0,0,1,7.57,15.249L33.837,97.807A131.1,131.1,0,0,1,43.419,83.736ZM13.93,165.2c1.535-22.386,6.987-42.766,16.185-60.633l96.161,6.6a142.579,142.579,0,0,1,6.708,27.908c0,.025.013.047.017.072-1.606,3.084-3.08,6.241-4.375,9.48-.01.023-.026.042-.035.066-5,12.523-8.9,30.366-7.511,40.8a52.366,52.366,0,0,0-39.146,42.12l-60.246-4.136C15.011,208.516,12.392,187.581,13.93,165.2Zm10.524,69.483,56.755,3.9a52.2,52.2,0,0,0,1.6,14.839l-50.779-3.486A131.439,131.439,0,0,1,24.454,234.683Zm46.759,49.984a9.072,9.072,0,0,1-10.265-.7,120.6,120.6,0,0,1-24.333-26.7L85.222,260.6a34.6,34.6,0,0,0,5.251,9.56A117.774,117.774,0,0,1,71.213,284.667Zm86.319-5.758a45.384,45.384,0,1,1-24.075-83.927,45.777,45.777,0,0,1,10.366,1.2,45.385,45.385,0,0,1,13.709,82.731Zm126.229-9.266a164.64,164.64,0,0,1-9.136-27.076c3.941-4.17,17.121-17.51,32.458-26.48a122.074,122.074,0,0,1,12.491,8.468A100.01,100.01,0,0,1,283.761,269.643Zm38.25-52.013A122.267,122.267,0,0,0,308.787,209a3.5,3.5,0,0,0-3.408,0c-20.084,11.192-36.483,29.425-37.172,30.195a3.5,3.5,0,0,0-.816,3.044c2.329,11.208,6.721,22.743,10.4,31.236A99.255,99.255,0,0,1,175,272.4a52.409,52.409,0,0,0-46.941-84.127c0-.07,0-.138,0-.207a98.75,98.75,0,0,1,6.216-34.569h36.8a3.5,3.5,0,0,0,3.115-1.9c.446-.869,10.959-21.519,15.068-41.293a3.5,3.5,0,0,0-.818-3.044c-.133-.149-2.717-3.029-7.033-7.179a99.274,99.274,0,0,1,91.741,0c-4.316,4.15-6.9,7.03-7.034,7.179a3.5,3.5,0,0,0-.817,3.044c4.108,19.774,14.622,40.424,15.067,41.293a3.5,3.5,0,0,0,3.116,1.9h36.8a99.415,99.415,0,0,1,1.728,64.135Z" style="fill:#3c3c4f"/><path d="M228.981,145.556a3.5,3.5,0,0,0-3.408,0C205.489,156.747,189.09,174.98,188.4,175.75a3.5,3.5,0,0,0-.816,3.044c4.108,19.774,14.622,40.424,15.067,41.293a3.5,3.5,0,0,0,3.116,1.9h43.02a3.5,3.5,0,0,0,3.115-1.9c.446-.869,10.958-21.519,15.067-41.293a3.5,3.5,0,0,0-.817-3.044C265.465,174.98,249.065,156.747,228.981,145.556Zm17.629,69.435H207.945c-2.564-5.316-9.722-20.9-13.125-35.869,3.942-4.169,17.12-17.509,32.457-26.479,15.337,8.97,28.516,22.31,32.457,26.479C256.332,194.091,249.175,209.675,246.61,214.991Z" style="fill:#3c3c4f"/></g></svg>